<svg class="journal-art" viewBox="0 0 160 100" xmlns="http://www.w3.org/2000/svg" aria-hidden="true" focusable="false"><ellipse cx="80" cy="58" rx="65" ry="32" fill="#e2efea"/><path d="M25 72q14-6 27 0t27 0t27 0t27 0M37 81q10-4 20 0t20 0t20 0t20 0" fill="none" stroke="#a9ccc2" stroke-width="2"/><path d="M33 79q46-11 93 0" stroke="#d6c5a8" stroke-width="8" stroke-linecap="round"/><path d="M62 75V41m0 19-14-14m14 7 14-14M48 46V33m0 9-10-5m38 2V28m0 8 10-6" fill="none" stroke="#daaa9e" stroke-width="6" stroke-linecap="round"/><path d="M103 78V59m0 8-13-9m13 6 11-13m0 7 7-3" fill="none" stroke="#b4a8c5" stroke-width="5" stroke-linecap="round"/><g fill="#f1d3aa"><circle cx="48" cy="33" r="3"/><circle cx="76" cy="28" r="3"/><circle cx="62" cy="41" r="3"/></g></svg>
