<svg class="journal-art" viewBox="0 0 160 100" xmlns="http://www.w3.org/2000/svg" aria-hidden="true" focusable="false"><ellipse cx="80" cy="59" rx="64" ry="30" fill="#ecedd9"/><ellipse cx="80" cy="79" rx="47" ry="7" fill="#d5ddbe"/><g transform="rotate(-7 80 51)"><rect x="39" y="20" width="82" height="61" rx="3" fill="#fffdf1" stroke="#d3d6bd" stroke-width="2"/><rect x="45" y="26" width="70" height="40" rx="1" fill="#bcd6cd"/><circle cx="98" cy="36" r="6" fill="#f2d49a"/><path d="M45 62l23-21 19 17 14-12 14 15v5H45z" fill="#8ea985"/><path d="M48 66l18-12 19 8 11-7 19 11" fill="#adc094"/><path d="M61 74h37" stroke="#dbd9bd" stroke-width="2"/></g><path d="M30 49v8m-4-4h8m88-21v10m-5-5h10" stroke="#ddc27d" stroke-width="2" stroke-linecap="round"/></svg>
